<svg id="Layer_1" data-name="Layer 1" xmlns="http://www.w3.org/2000/svg" viewBox="0 0 1218.34 862.95"><defs><style>.cls-1,.cls-2{font-size:720px;font-family:ArialMT, Arial;}.cls-1{fill:#4d6bff;}.cls-2{opacity:0.67;fill:none;stroke:#fff;stroke-miterlimit:10;stroke-width:2px;}.cls-3{fill:#231f20;}.cls-4{opacity:0.81;}</style></defs><text class="cls-1" transform="translate(0 617.87)">404</text><text class="cls-2" transform="translate(16.05 628.16)">404</text><path class="cls-3" d="M620.13,578.23a1.25,1.25,0,0,0,0-2.5,1.25,1.25,0,0,0,0,2.5Z"/><path class="cls-3" d="M641.06,578.23a1.25,1.25,0,0,0,0-2.5,1.25,1.25,0,0,0,0,2.5Z"/><path class="cls-3" d="M661.71,578.23a1.25,1.25,0,0,0,0-2.5,1.25,1.25,0,0,0,0,2.5Z"/><path class="cls-3" d="M680.44,578.23a1.25,1.25,0,0,0,0-2.5,1.25,1.25,0,0,0,0,2.5Z"/><path class="cls-3" d="M620.13,588a1.25,1.25,0,0,0,0-2.5,1.25,1.25,0,0,0,0,2.5Z"/><path class="cls-3" d="M641.06,588a1.25,1.25,0,0,0,0-2.5,1.25,1.25,0,0,0,0,2.5Z"/><path class="cls-3" d="M661.71,588a1.25,1.25,0,0,0,0-2.5,1.25,1.25,0,0,0,0,2.5Z"/><path class="cls-3" d="M680.44,588a1.25,1.25,0,0,0,0-2.5,1.25,1.25,0,0,0,0,2.5Z"/><path class="cls-3" d="M620.13,597.84a1.25,1.25,0,0,0,0-2.5,1.25,1.25,0,0,0,0,2.5Z"/><path class="cls-3" d="M641.06,597.84a1.25,1.25,0,0,0,0-2.5,1.25,1.25,0,0,0,0,2.5Z"/><path class="cls-3" d="M661.71,597.84a1.25,1.25,0,0,0,0-2.5,1.25,1.25,0,0,0,0,2.5Z"/><path class="cls-3" d="M680.44,597.84a1.25,1.25,0,0,0,0-2.5,1.25,1.25,0,0,0,0,2.5Z"/><path class="cls-3" d="M620.13,607.65a1.25,1.25,0,0,0,0-2.5,1.25,1.25,0,0,0,0,2.5Z"/><path class="cls-3" d="M641.06,607.65a1.25,1.25,0,0,0,0-2.5,1.25,1.25,0,0,0,0,2.5Z"/><path class="cls-3" d="M661.71,607.65a1.25,1.25,0,0,0,0-2.5,1.25,1.25,0,0,0,0,2.5Z"/><path class="cls-3" d="M680.44,607.65a1.25,1.25,0,0,0,0-2.5,1.25,1.25,0,0,0,0,2.5Z"/><path class="cls-3" d="M620.13,617.46a1.25,1.25,0,0,0,0-2.5,1.25,1.25,0,0,0,0,2.5Z"/><path class="cls-3" d="M641.06,617.46a1.25,1.25,0,0,0,0-2.5,1.25,1.25,0,0,0,0,2.5Z"/><path class="cls-3" d="M661.71,617.46a1.25,1.25,0,0,0,0-2.5,1.25,1.25,0,0,0,0,2.5Z"/><path class="cls-3" d="M620.13,627.26a1.25,1.25,0,0,0,0-2.5,1.25,1.25,0,0,0,0,2.5Z"/><path class="cls-3" d="M699.16,578.23a1.25,1.25,0,0,0,0-2.5,1.25,1.25,0,0,0,0,2.5Z"/><path class="cls-3" d="M699.16,588a1.25,1.25,0,0,0,0-2.5,1.25,1.25,0,0,0,0,2.5Z"/><path class="cls-3" d="M680.44,519.39a1.25,1.25,0,0,0,0-2.5,1.25,1.25,0,0,0,0,2.5Z"/><path class="cls-3" d="M680.44,529.2a1.25,1.25,0,0,0,0-2.5,1.25,1.25,0,0,0,0,2.5Z"/><path class="cls-3" d="M680.44,539a1.25,1.25,0,0,0,0-2.5,1.25,1.25,0,0,0,0,2.5Z"/><path class="cls-3" d="M661.71,548.81a1.25,1.25,0,0,0,0-2.5,1.25,1.25,0,0,0,0,2.5Z"/><path class="cls-3" d="M680.44,548.81a1.25,1.25,0,0,0,0-2.5,1.25,1.25,0,0,0,0,2.5Z"/><path class="cls-3" d="M661.71,558.62a1.25,1.25,0,0,0,0-2.5,1.25,1.25,0,0,0,0,2.5Z"/><path class="cls-3" d="M680.44,558.62a1.25,1.25,0,0,0,0-2.5,1.25,1.25,0,0,0,0,2.5Z"/><path class="cls-3" d="M641.06,568.42a1.25,1.25,0,0,0,0-2.5,1.25,1.25,0,0,0,0,2.5Z"/><path class="cls-3" d="M661.71,568.42a1.25,1.25,0,0,0,0-2.5,1.25,1.25,0,0,0,0,2.5Z"/><path class="cls-3" d="M680.44,568.42a1.25,1.25,0,0,0,0-2.5,1.25,1.25,0,0,0,0,2.5Z"/><path class="cls-3" d="M699.16,499.78a1.25,1.25,0,0,0,0-2.5,1.25,1.25,0,0,0,0,2.5Z"/><path class="cls-3" d="M720.09,499.78a1.25,1.25,0,0,0,0-2.5,1.25,1.25,0,0,0,0,2.5Z"/><path class="cls-3" d="M740.74,499.78a1.25,1.25,0,0,0,0-2.5,1.25,1.25,0,0,0,0,2.5Z"/><path class="cls-3" d="M699.16,509.59a1.25,1.25,0,0,0,0-2.5,1.25,1.25,0,0,0,0,2.5Z"/><path class="cls-3" d="M720.09,509.59a1.25,1.25,0,0,0,0-2.5,1.25,1.25,0,0,0,0,2.5Z"/><path class="cls-3" d="M740.74,509.59a1.25,1.25,0,0,0,0-2.5,1.25,1.25,0,0,0,0,2.5Z"/><path class="cls-3" d="M699.16,519.39a1.25,1.25,0,0,0,0-2.5,1.25,1.25,0,0,0,0,2.5Z"/><path class="cls-3" d="M720.09,519.39a1.25,1.25,0,0,0,0-2.5,1.25,1.25,0,0,0,0,2.5Z"/><path class="cls-3" d="M740.74,519.39a1.25,1.25,0,0,0,0-2.5,1.25,1.25,0,0,0,0,2.5Z"/><path class="cls-3" d="M699.16,529.2a1.25,1.25,0,0,0,0-2.5,1.25,1.25,0,0,0,0,2.5Z"/><path class="cls-3" d="M720.09,529.2a1.25,1.25,0,0,0,0-2.5,1.25,1.25,0,0,0,0,2.5Z"/><path class="cls-3" d="M740.74,529.2a1.25,1.25,0,0,0,0-2.5,1.25,1.25,0,0,0,0,2.5Z"/><path class="cls-3" d="M699.16,539a1.25,1.25,0,0,0,0-2.5,1.25,1.25,0,0,0,0,2.5Z"/><path class="cls-3" d="M720.09,539a1.25,1.25,0,0,0,0-2.5,1.25,1.25,0,0,0,0,2.5Z"/><path class="cls-3" d="M699.16,548.81a1.25,1.25,0,0,0,0-2.5,1.25,1.25,0,0,0,0,2.5Z"/><path class="cls-3" d="M720.09,548.81a1.25,1.25,0,0,0,0-2.5,1.25,1.25,0,0,0,0,2.5Z"/><path class="cls-3" d="M699.16,558.62a1.25,1.25,0,0,0,0-2.5,1.25,1.25,0,0,0,0,2.5Z"/><path class="cls-3" d="M720.09,558.62a1.25,1.25,0,0,0,0-2.5,1.25,1.25,0,0,0,0,2.5Z"/><path class="cls-3" d="M699.16,568.42a1.25,1.25,0,0,0,0-2.5,1.25,1.25,0,0,0,0,2.5Z"/><path class="cls-3" d="M720.09,568.42a1.25,1.25,0,0,0,0-2.5,1.25,1.25,0,0,0,0,2.5Z"/><path class="cls-3" d="M934.51,260.81a1.25,1.25,0,0,0,0-2.5,1.25,1.25,0,0,0,0,2.5Z"/><path class="cls-3" d="M934.51,270.62a1.25,1.25,0,0,0,0-2.5,1.25,1.25,0,0,0,0,2.5Z"/><path class="cls-3" d="M934.51,280.42a1.25,1.25,0,0,0,0-2.5,1.25,1.25,0,0,0,0,2.5Z"/><path class="cls-3" d="M915.79,290.23a1.25,1.25,0,0,0,0-2.5,1.25,1.25,0,0,0,0,2.5Z"/><path class="cls-3" d="M934.51,290.23a1.25,1.25,0,0,0,0-2.5,1.25,1.25,0,0,0,0,2.5Z"/><path class="cls-3" d="M915.79,300a1.25,1.25,0,0,0,0-2.5,1.25,1.25,0,0,0,0,2.5Z"/><path class="cls-3" d="M934.51,300a1.25,1.25,0,0,0,0-2.5,1.25,1.25,0,0,0,0,2.5Z"/><path class="cls-3" d="M915.79,309.84a1.25,1.25,0,0,0,0-2.5,1.25,1.25,0,0,0,0,2.5Z"/><path class="cls-3" d="M934.51,309.84a1.25,1.25,0,0,0,0-2.5,1.25,1.25,0,0,0,0,2.5Z"/><path class="cls-3" d="M895.13,319.65a1.25,1.25,0,0,0,0-2.5,1.25,1.25,0,0,0,0,2.5Z"/><path class="cls-3" d="M915.79,319.65a1.25,1.25,0,0,0,0-2.5,1.25,1.25,0,0,0,0,2.5Z"/><path class="cls-3" d="M934.51,319.65a1.25,1.25,0,0,0,0-2.5,1.25,1.25,0,0,0,0,2.5Z"/><path class="cls-3" d="M895.13,329.46a1.25,1.25,0,0,0,0-2.5,1.25,1.25,0,0,0,0,2.5Z"/><path class="cls-3" d="M915.79,329.46a1.25,1.25,0,0,0,0-2.5,1.25,1.25,0,0,0,0,2.5Z"/><path class="cls-3" d="M934.51,329.46a1.25,1.25,0,0,0,0-2.5,1.25,1.25,0,0,0,0,2.5Z"/><path class="cls-3" d="M953.24,260.81a1.25,1.25,0,0,0,0-2.5,1.25,1.25,0,0,0,0,2.5Z"/><path class="cls-3" d="M974.16,260.81a1.25,1.25,0,0,0,0-2.5,1.25,1.25,0,0,0,0,2.5Z"/><path class="cls-3" d="M953.24,270.62a1.25,1.25,0,0,0,0-2.5,1.25,1.25,0,0,0,0,2.5Z"/><path class="cls-3" d="M974.16,270.62a1.25,1.25,0,0,0,0-2.5,1.25,1.25,0,0,0,0,2.5Z"/><path class="cls-3" d="M953.24,280.42a1.25,1.25,0,0,0,0-2.5,1.25,1.25,0,0,0,0,2.5Z"/><path class="cls-3" d="M974.16,280.42a1.25,1.25,0,0,0,0-2.5,1.25,1.25,0,0,0,0,2.5Z"/><path class="cls-3" d="M953.24,290.23a1.25,1.25,0,0,0,0-2.5,1.25,1.25,0,0,0,0,2.5Z"/><path class="cls-3" d="M953.24,300a1.25,1.25,0,0,0,0-2.5,1.25,1.25,0,0,0,0,2.5Z"/><path class="cls-3" d="M953.24,309.84a1.25,1.25,0,0,0,0-2.5,1.25,1.25,0,0,0,0,2.5Z"/><path class="cls-3" d="M953.24,319.65a1.25,1.25,0,0,0,0-2.5,1.25,1.25,0,0,0,0,2.5Z"/><path class="cls-3" d="M1013.54,192.17a1.25,1.25,0,0,0,0-2.5,1.25,1.25,0,0,0,0,2.5Z"/><path class="cls-3" d="M994.82,202a1.25,1.25,0,0,0,0-2.5,1.25,1.25,0,0,0,0,2.5Z"/><path class="cls-3" d="M1013.54,202a1.25,1.25,0,0,0,0-2.5,1.25,1.25,0,0,0,0,2.5Z"/><path class="cls-3" d="M974.16,211.78a1.25,1.25,0,0,0,0-2.5,1.25,1.25,0,0,0,0,2.5Z"/><path class="cls-3" d="M994.82,211.78a1.25,1.25,0,0,0,0-2.5,1.25,1.25,0,0,0,0,2.5Z"/><path class="cls-3" d="M1013.54,211.78a1.25,1.25,0,0,0,0-2.5,1.25,1.25,0,0,0,0,2.5Z"/><path class="cls-3" d="M974.16,221.59a1.25,1.25,0,0,0,0-2.5,1.25,1.25,0,0,0,0,2.5Z"/><path class="cls-3" d="M994.82,221.59a1.25,1.25,0,0,0,0-2.5,1.25,1.25,0,0,0,0,2.5Z"/><path class="cls-3" d="M1013.54,221.59a1.25,1.25,0,0,0,0-2.5,1.25,1.25,0,0,0,0,2.5Z"/><path class="cls-3" d="M974.16,231.39a1.25,1.25,0,0,0,0-2.5,1.25,1.25,0,0,0,0,2.5Z"/><path class="cls-3" d="M994.82,231.39a1.25,1.25,0,0,0,0-2.5,1.25,1.25,0,0,0,0,2.5Z"/><path class="cls-3" d="M1013.54,231.39a1.25,1.25,0,0,0,0-2.5,1.25,1.25,0,0,0,0,2.5Z"/><path class="cls-3" d="M953.24,241.2a1.25,1.25,0,0,0,0-2.5,1.25,1.25,0,0,0,0,2.5Z"/><path class="cls-3" d="M974.16,241.2a1.25,1.25,0,0,0,0-2.5,1.25,1.25,0,0,0,0,2.5Z"/><path class="cls-3" d="M994.82,241.2a1.25,1.25,0,0,0,0-2.5,1.25,1.25,0,0,0,0,2.5Z"/><path class="cls-3" d="M953.24,251a1.25,1.25,0,0,0,0-2.5,1.25,1.25,0,0,0,0,2.5Z"/><path class="cls-3" d="M974.16,251a1.25,1.25,0,0,0,0-2.5,1.25,1.25,0,0,0,0,2.5Z"/><path class="cls-3" d="M994.82,251a1.25,1.25,0,0,0,0-2.5,1.25,1.25,0,0,0,0,2.5Z"/><g class="cls-4"><path class="cls-3" d="M8.44,445.84a1.25,1.25,0,0,0,0-2.5,1.25,1.25,0,0,0,0,2.5Z"/></g><g class="cls-4"><path class="cls-3" d="M8.44,455.65a1.25,1.25,0,0,0,0-2.5,1.25,1.25,0,0,0,0,2.5Z"/></g><g class="cls-4"><path class="cls-3" d="M8.44,465.46a1.25,1.25,0,0,0,0-2.5,1.25,1.25,0,0,0,0,2.5Z"/></g><g class="cls-4"><path class="cls-3" d="M8.44,475.26a1.25,1.25,0,0,0,0-2.5,1.25,1.25,0,0,0,0,2.5Z"/></g><g class="cls-4"><path class="cls-3" d="M8.44,485.07a1.25,1.25,0,0,0,0-2.5,1.25,1.25,0,0,0,0,2.5Z"/></g><g class="cls-4"><path class="cls-3" d="M8.44,494.88a1.25,1.25,0,0,0,0-2.5,1.25,1.25,0,0,0,0,2.5Z"/></g><g class="cls-4"><path class="cls-3" d="M60.73,494.88a1.25,1.25,0,0,0,0-2.5,1.25,1.25,0,0,0,0,2.5Z"/></g><g class="cls-4"><path class="cls-3" d="M77,494.88a1.25,1.25,0,0,0,0-2.5,1.25,1.25,0,0,0,0,2.5Z"/></g><g class="cls-4"><path class="cls-3" d="M24.68,436a1.25,1.25,0,0,0,0-2.5,1.25,1.25,0,0,0,0,2.5Z"/></g><g class="cls-4"><path class="cls-3" d="M42.83,436a1.25,1.25,0,0,0,0-2.5,1.25,1.25,0,0,0,0,2.5Z"/></g><g class="cls-4"><path class="cls-3" d="M24.68,445.84a1.25,1.25,0,0,0,0-2.5,1.25,1.25,0,0,0,0,2.5Z"/></g><g class="cls-4"><path class="cls-3" d="M42.83,445.84a1.25,1.25,0,0,0,0-2.5,1.25,1.25,0,0,0,0,2.5Z"/></g><g class="cls-4"><path class="cls-3" d="M24.68,455.65a1.25,1.25,0,0,0,0-2.5,1.25,1.25,0,0,0,0,2.5Z"/></g><g class="cls-4"><path class="cls-3" d="M42.83,455.65a1.25,1.25,0,0,0,0-2.5,1.25,1.25,0,0,0,0,2.5Z"/></g><g class="cls-4"><path class="cls-3" d="M24.68,465.46a1.25,1.25,0,0,0,0-2.5,1.25,1.25,0,0,0,0,2.5Z"/></g><g class="cls-4"><path class="cls-3" d="M42.83,465.46a1.25,1.25,0,0,0,0-2.5,1.25,1.25,0,0,0,0,2.5Z"/></g><g class="cls-4"><path class="cls-3" d="M24.68,475.26a1.25,1.25,0,0,0,0-2.5,1.25,1.25,0,0,0,0,2.5Z"/></g><g class="cls-4"><path class="cls-3" d="M42.83,475.26a1.25,1.25,0,0,0,0-2.5,1.25,1.25,0,0,0,0,2.5Z"/></g><g class="cls-4"><path class="cls-3" d="M24.68,485.07a1.25,1.25,0,0,0,0-2.5,1.25,1.25,0,0,0,0,2.5Z"/></g><g class="cls-4"><path class="cls-3" d="M42.83,485.07a1.25,1.25,0,0,0,0-2.5,1.25,1.25,0,0,0,0,2.5Z"/></g><g class="cls-4"><path class="cls-3" d="M24.68,494.88a1.25,1.25,0,0,0,0-2.5,1.25,1.25,0,0,0,0,2.5Z"/></g><g class="cls-4"><path class="cls-3" d="M42.83,494.88a1.25,1.25,0,0,0,0-2.5,1.25,1.25,0,0,0,0,2.5Z"/></g><g class="cls-4"><path class="cls-3" d="M77,357.59a1.25,1.25,0,0,0,0-2.5,1.25,1.25,0,0,0,0,2.5Z"/></g><g class="cls-4"><path class="cls-3" d="M60.73,367.39a1.25,1.25,0,0,0,0-2.5,1.25,1.25,0,0,0,0,2.5Z"/></g><g class="cls-4"><path class="cls-3" d="M77,367.39a1.25,1.25,0,0,0,0-2.5,1.25,1.25,0,0,0,0,2.5Z"/></g><g class="cls-4"><path class="cls-3" d="M60.73,377.2a1.25,1.25,0,0,0,0-2.5,1.25,1.25,0,0,0,0,2.5Z"/></g><g class="cls-4"><path class="cls-3" d="M77,377.2a1.25,1.25,0,0,0,0-2.5,1.25,1.25,0,0,0,0,2.5Z"/></g><g class="cls-4"><path class="cls-3" d="M60.73,387a1.25,1.25,0,0,0,0-2.5,1.25,1.25,0,0,0,0,2.5Z"/></g><g class="cls-4"><path class="cls-3" d="M77,387a1.25,1.25,0,0,0,0-2.5,1.25,1.25,0,0,0,0,2.5Z"/></g><g class="cls-4"><path class="cls-3" d="M42.83,396.81a1.25,1.25,0,0,0,0-2.5,1.25,1.25,0,0,0,0,2.5Z"/></g><g class="cls-4"><path class="cls-3" d="M60.73,396.81a1.25,1.25,0,0,0,0-2.5,1.25,1.25,0,0,0,0,2.5Z"/></g><g class="cls-4"><path class="cls-3" d="M77,396.81a1.25,1.25,0,0,0,0-2.5,1.25,1.25,0,0,0,0,2.5Z"/></g><g class="cls-4"><path class="cls-3" d="M42.83,406.62a1.25,1.25,0,0,0,0-2.5,1.25,1.25,0,0,0,0,2.5Z"/></g><g class="cls-4"><path class="cls-3" d="M60.73,406.62a1.25,1.25,0,0,0,0-2.5,1.25,1.25,0,0,0,0,2.5Z"/></g><g class="cls-4"><path class="cls-3" d="M77,406.62a1.25,1.25,0,0,0,0-2.5,1.25,1.25,0,0,0,0,2.5Z"/></g><g class="cls-4"><path class="cls-3" d="M24.68,416.42a1.25,1.25,0,0,0,0-2.5,1.25,1.25,0,0,0,0,2.5Z"/></g><g class="cls-4"><path class="cls-3" d="M42.83,416.42a1.25,1.25,0,0,0,0-2.5,1.25,1.25,0,0,0,0,2.5Z"/></g><g class="cls-4"><path class="cls-3" d="M60.73,416.42a1.25,1.25,0,0,0,0-2.5,1.25,1.25,0,0,0,0,2.5Z"/></g><g class="cls-4"><path class="cls-3" d="M77,416.42a1.25,1.25,0,0,0,0-2.5,1.25,1.25,0,0,0,0,2.5Z"/></g><g class="cls-4"><path class="cls-3" d="M60.73,426.23a1.25,1.25,0,0,0,0-2.5,1.25,1.25,0,0,0,0,2.5Z"/></g><g class="cls-4"><path class="cls-3" d="M77,426.23a1.25,1.25,0,0,0,0-2.5,1.25,1.25,0,0,0,0,2.5Z"/></g><g class="cls-4"><path class="cls-3" d="M60.73,436a1.25,1.25,0,0,0,0-2.5,1.25,1.25,0,0,0,0,2.5Z"/></g><g class="cls-4"><path class="cls-3" d="M77,436a1.25,1.25,0,0,0,0-2.5,1.25,1.25,0,0,0,0,2.5Z"/></g><g class="cls-4"><path class="cls-3" d="M60.73,445.84a1.25,1.25,0,0,0,0-2.5,1.25,1.25,0,0,0,0,2.5Z"/></g><g class="cls-4"><path class="cls-3" d="M77,445.84a1.25,1.25,0,0,0,0-2.5,1.25,1.25,0,0,0,0,2.5Z"/></g><g class="cls-4"><path class="cls-3" d="M60.73,455.65a1.25,1.25,0,0,0,0-2.5,1.25,1.25,0,0,0,0,2.5Z"/></g><g class="cls-4"><path class="cls-3" d="M77,455.65a1.25,1.25,0,0,0,0-2.5,1.25,1.25,0,0,0,0,2.5Z"/></g><g class="cls-4"><path class="cls-3" d="M60.73,465.46a1.25,1.25,0,0,0,0-2.5,1.25,1.25,0,0,0,0,2.5Z"/></g><g class="cls-4"><path class="cls-3" d="M77,465.46a1.25,1.25,0,0,0,0-2.5,1.25,1.25,0,0,0,0,2.5Z"/></g><g class="cls-4"><path class="cls-3" d="M60.73,475.26a1.25,1.25,0,0,0,0-2.5,1.25,1.25,0,0,0,0,2.5Z"/></g><g class="cls-4"><path class="cls-3" d="M77,475.26a1.25,1.25,0,0,0,0-2.5,1.25,1.25,0,0,0,0,2.5Z"/></g><g class="cls-4"><path class="cls-3" d="M60.73,485.07a1.25,1.25,0,0,0,0-2.5,1.25,1.25,0,0,0,0,2.5Z"/></g><g class="cls-4"><path class="cls-3" d="M77,485.07a1.25,1.25,0,0,0,0-2.5,1.25,1.25,0,0,0,0,2.5Z"/></g><g class="cls-4"><path class="cls-3" d="M24.68,426.23a1.25,1.25,0,0,0,0-2.5,1.25,1.25,0,0,0,0,2.5Z"/></g><g class="cls-4"><path class="cls-3" d="M42.83,426.23a1.25,1.25,0,0,0,0-2.5,1.25,1.25,0,0,0,0,2.5Z"/></g></svg>